<?xml version="1.0" standalone="no"?>
<!DOCTYPE svg PUBLIC "-//W3C//DTD SVG 20010904//EN"
 "http://www.w3.org/TR/2001/REC-SVG-20010904/DTD/svg10.dtd">
<svg version="1.0" xmlns="http://www.w3.org/2000/svg"
 width="316.000000pt" height="316.000000pt" viewBox="0 0 316.000000 316.000000"
 preserveAspectRatio="xMidYMid meet">
<metadata>
Created by potrace 1.11, written by Peter Selinger 2001-2013
</metadata>
<g transform="translate(0.000000,316.000000) scale(0.100000,-0.100000)"
fill="#000000" stroke="none">
<path d="M1410 3153 c-14 -2 -52 -8 -85 -14 -33 -6 -71 -13 -85 -16 -63 -11
-202 -60 -310 -109 -231 -106 -479 -327 -621 -554 -69 -110 -165 -331 -183
-423 -3 -12 -12 -58 -22 -102 -13 -58 -18 -127 -18 -255 -1 -216 6 -275 51
-430 88 -305 262 -568 502 -759 102 -81 155 -115 276 -174 153 -75 249 -107
410 -137 144 -26 421 -22 559 9 306 69 545 199 756 411 213 214 344 455 411
760 21 91 24 131 23 305 0 181 -3 211 -27 315 -15 63 -36 140 -48 170 -11 30
-23 64 -27 75 -19 65 -169 322 -216 371 -6 6 -31 35 -56 64 -25 29 -82 85
-127 125 -203 178 -444 297 -708 350 -16 3 -41 8 -55 11 -31 6 -366 12 -400 7z"/>
</g>
</svg>
